<?xml version="1.0" encoding="UTF-8"?>
<!DOCTYPE svg PUBLIC "-//W3C//DTD SVG 1.1//EN" "http://www.w3.org/Graphics/SVG/1.1/DTD/svg11.dtd">
<!-- Creator: CorelDRAW 2020 (64-Bit) -->
<svg xmlns="http://www.w3.org/2000/svg" xml:space="preserve" width="150mm" height="150mm" version="1.1" style="shape-rendering:geometricPrecision; text-rendering:geometricPrecision; image-rendering:optimizeQuality; fill-rule:evenodd; clip-rule:evenodd"
viewBox="0 0 15000 15000"
 xmlns:xlink="http://www.w3.org/1999/xlink"
 xmlns:xodm="http://www.corel.com/coreldraw/odm/2003">
 <defs>
  <style type="text/css">
   <![CDATA[
    .fil1 {fill:#203A59}
    .fil2 {fill:#BFCFFF}
    .fil0 {fill:#C8E7ED}
    .fil4 {fill:#FFA5A5}
    .fil3 {fill:#FFFFC2}
   ]]>
  </style>
 </defs>
 <g id="Слой_x0020_1">
  <metadata id="CorelCorpID_0Corel-Layer"/>
  <g id="_57322656">
   <g>
    <path class="fil0" d="M7086.77 7707.86c-63.39,469.75 -769.41,1129.04 -1540.32,1539.15 -770.92,410.13 -1606.75,571.08 -2382.85,584.05 -776.11,12.98 -1492.53,-122 -2022.04,-493.19 -529.53,-371.18 -872.15,-978.57 -921.47,-1515.88 -49.32,-537.3 194.66,-1004.52 545.09,-1339.36 350.42,-334.84 807.26,-537.32 969.5,-709.92 162.22,-172.6 29.82,-315.32 -89.58,-642.38 -119.4,-327.06 -225.81,-838.44 -102.51,-1325.15 123.29,-486.69 476.3,-948.73 899.41,-1213.48 423.09,-264.77 916.27,-332.27 1366.63,-260.87 450.35,71.39 857.85,281.68 1040.65,660.72 182.78,379.05 140.86,926.86 293.8,1569.36 152.94,642.5 500.77,1379.67 964.3,1888.34 463.53,508.69 1042.79,788.87 979.39,1258.61z"/>
    <path id="1" class="fil1" d="M7086.77 7707.86c-63.39,469.75 -769.41,1129.04 -1540.32,1539.15 -770.92,410.13 -1606.75,571.08 -2382.85,584.05 -776.11,12.98 -1492.53,-122 -2022.04,-493.19 -529.53,-371.18 -872.15,-978.57 -921.47,-1515.88 -49.32,-537.3 194.66,-1004.52 545.09,-1339.36 350.42,-334.84 807.26,-537.32 969.5,-709.92 162.22,-172.6 29.82,-315.32 -89.58,-642.38 -119.4,-327.06 -225.81,-838.44 -102.51,-1325.15 123.29,-486.69 476.3,-948.73 899.41,-1213.48 423.09,-264.77 916.27,-332.27 1366.63,-260.87 450.35,71.39 857.85,281.68 1040.65,660.72 182.78,379.05 140.86,926.86 293.8,1569.36 152.94,642.5 500.77,1379.67 964.3,1888.34 463.53,508.69 1042.79,788.87 979.39,1258.61zm-442.69 595.78c155.1,-154.98 259.39,-303.24 274.32,-413.89 39.09,-289.66 -221.01,-518.69 -535.35,-795.47 -143.06,-125.97 -296.94,-261.46 -435.97,-414.04 -223.82,-245.61 -421.45,-545.68 -583.78,-863.56 -174.75,-342.21 -307.72,-704.11 -387.7,-1040.16 -67.51,-283.61 -97.2,-541.7 -124.18,-776.44 -35.43,-308.22 -66.21,-575.86 -166.77,-784.4 -84.73,-175.69 -219.09,-314.36 -383.97,-419.05 -183.61,-116.58 -405.16,-191.26 -638.54,-228.25 -230.09,-36.48 -471.1,-36.18 -707.35,8.92 -212.84,40.62 -420.57,117.51 -610.82,236.56 -173.3,108.44 -322.26,244.47 -431.61,392.01 -91.68,123.69 -164.42,275.23 -206.89,442.91 -48.15,190.08 -56.48,391.71 -41.49,585.59 20.02,258.9 81.59,495.92 147.1,675.37 28.1,76.98 55.6,140.89 80.07,197.77 117.07,272.11 186.22,432.83 -180.33,822.86 -111.5,118.63 -255.43,210.19 -424.94,318.02 -182.05,115.8 -399.05,253.85 -566.82,414.16 -107.52,102.74 -195.59,221.42 -247.6,349.22 -70.65,173.63 -103.6,375.46 -82.68,603.37 24.48,266.72 124.51,553.03 286.08,818.83 155.46,255.76 367.21,490.95 622.89,670.17 250.3,175.46 543.53,297.76 865.76,376.36 351.12,85.63 737.66,118.86 1141.25,112.11 407.27,-6.8 829.65,-54.21 1248.32,-156.83 372.57,-91.31 744.15,-226.88 1101.88,-417.19 377.26,-200.7 731.45,-457.48 989.12,-714.95z"/>
   </g>
   <g>
    <path class="fil2" d="M7292.48 7088.18c-469.75,-63.39 -1129.04,-769.41 -1539.16,-1540.32 -410.12,-770.93 -571.07,-1606.75 -584.05,-2382.85 -12.98,-776.11 122.01,-1492.53 493.2,-2022.04 371.17,-529.53 978.56,-872.15 1515.88,-921.47 537.3,-49.32 1004.52,194.66 1339.36,545.09 334.84,350.42 537.31,807.25 709.91,969.5 172.6,162.22 315.33,29.82 642.39,-89.58 327.05,-119.4 838.44,-225.81 1325.15,-102.51 486.69,123.29 948.73,476.3 1213.48,899.41 264.77,423.09 332.27,916.27 260.87,1366.63 -71.39,450.34 -281.68,857.85 -660.72,1040.65 -379.05,182.78 -926.86,140.86 -1569.36,293.8 -642.5,152.94 -1379.67,500.77 -1888.34,964.3 -508.7,463.53 -788.87,1042.79 -1258.61,979.39z"/>
    <path id="1" class="fil1" d="M7292.48 7088.18c-469.75,-63.39 -1129.04,-769.41 -1539.16,-1540.32 -410.12,-770.93 -571.07,-1606.75 -584.05,-2382.85 -12.98,-776.11 122.01,-1492.53 493.2,-2022.04 371.17,-529.53 978.56,-872.15 1515.88,-921.47 537.3,-49.32 1004.52,194.66 1339.36,545.09 334.84,350.42 537.31,807.25 709.91,969.5 172.6,162.22 315.33,29.82 642.39,-89.58 327.05,-119.4 838.44,-225.81 1325.15,-102.51 486.69,123.29 948.73,476.3 1213.48,899.41 264.77,423.09 332.27,916.27 260.87,1366.63 -71.39,450.34 -281.68,857.85 -660.72,1040.65 -379.05,182.78 -926.86,140.86 -1569.36,293.8 -642.5,152.94 -1379.67,500.77 -1888.34,964.3 -508.7,463.53 -788.87,1042.79 -1258.61,979.39zm-607.62 -711.28c263.7,263.9 531.48,443.42 753.6,473.39 280.28,37.83 474.29,-182.49 708.75,-448.76 135.93,-154.38 282.14,-320.43 458.78,-481.38 265.07,-241.55 581.56,-451.08 912.29,-619.98 347.92,-177.67 713.96,-312.4 1052.22,-392.91 280.79,-66.84 540.16,-96.67 776.07,-123.79 306.97,-35.29 573.52,-65.95 775.48,-163.33 119.13,-57.45 196.05,-121.6 238.01,-187.69 65.53,-103.2 112.6,-259.88 141.98,-445.22 34.8,-219.5 33.95,-452.4 -10.29,-684.15 -41.87,-219.34 -121.79,-434.53 -246.04,-633.08 -132.19,-211.26 -314.38,-404.96 -524.44,-560.66 -205.19,-152.08 -437.08,-267.8 -675.01,-328.07 -208.45,-52.8 -422.96,-62.45 -625.64,-46.78 -257.73,19.93 -494.17,81.4 -673.39,146.83 -72.51,26.47 -137.15,54.28 -194.69,79.04 -212.17,91.28 -337.51,145.19 -483.94,7.58 -80.04,-75.24 -162,-204.07 -258.52,-355.81 -122.34,-192.31 -268.16,-421.55 -452.42,-614.38 -174.72,-182.86 -385.7,-336.34 -623.75,-433.22 -212.14,-86.33 -445.53,-127.8 -693.44,-105.04 -264.48,24.27 -544.48,121.09 -800.8,276.9 -214.03,130.1 -399.28,290.79 -524.55,469.5 -116.88,166.73 -204.95,389.1 -268.96,651.56 -82.12,336.7 -113.91,711.85 -107.31,1106.6 6.78,405.76 54.07,826.8 156.44,1244.46 91.87,374.83 229.1,750.25 422.5,1113.79 210.47,395.64 486.03,773.34 767.07,1054.6z"/>
   </g>
   <g>
    <path class="fil3" d="M7910.3 7295.08c63.39,-469.75 769.41,-1129.04 1540.32,-1539.16 770.92,-410.12 1606.74,-571.07 2382.85,-584.05 776.1,-12.98 1492.52,122.01 2022.04,493.2 529.53,371.17 872.15,978.56 921.46,1515.88 49.33,537.3 -194.66,1004.52 -545.08,1339.36 -350.42,334.84 -807.26,537.31 -969.5,709.91 -162.22,172.6 -29.83,315.33 89.58,642.39 119.4,327.05 225.81,838.44 102.51,1325.15 -123.29,486.69 -476.31,948.73 -899.41,1213.48 -423.09,264.77 -916.28,332.27 -1366.63,260.87 -450.35,-71.39 -857.85,-281.68 -1040.65,-660.72 -182.79,-379.05 -140.86,-926.86 -293.8,-1569.36 -152.94,-642.5 -500.78,-1379.67 -964.31,-1888.34 -463.53,-508.7 -1042.78,-788.87 -979.38,-1258.61z"/>
    <path id="1" class="fil1" d="M7910.3 7295.08c63.39,-469.75 769.41,-1129.04 1540.32,-1539.16 770.92,-410.12 1606.74,-571.07 2382.85,-584.05 776.1,-12.98 1492.52,122.01 2022.04,493.2 529.53,371.17 872.15,978.56 921.46,1515.88 49.33,537.3 -194.66,1004.52 -545.08,1339.36 -350.42,334.84 -807.26,537.31 -969.5,709.91 -162.22,172.6 -29.83,315.33 89.58,642.39 119.4,327.05 225.81,838.44 102.51,1325.15 -123.29,486.69 -476.31,948.73 -899.41,1213.48 -423.09,264.77 -916.28,332.27 -1366.63,260.87 -450.35,-71.39 -857.85,-281.68 -1040.65,-660.72 -182.79,-379.05 -140.86,-926.86 -293.8,-1569.36 -152.94,-642.5 -500.78,-1379.67 -964.31,-1888.34 -463.53,-508.7 -1042.78,-788.87 -979.38,-1258.61zm442.69 -595.78c-155.11,154.99 -259.39,303.24 -274.32,413.89 -39.09,289.66 221.01,518.69 535.33,795.46 143.06,125.97 296.94,261.46 435.98,414.05 223.81,245.62 421.45,545.67 583.79,863.57 174.74,342.21 307.72,704.11 387.7,1040.15 67.51,283.61 97.19,541.69 124.17,776.43 35.43,308.23 66.22,575.87 166.78,784.41 84.73,175.69 219.09,314.36 383.97,419.05 183.61,116.58 405.16,191.26 638.54,228.25 230.07,36.48 471.08,36.18 707.34,-8.92 212.85,-40.62 420.59,-117.51 610.83,-236.56 173.29,-108.43 322.25,-244.47 431.61,-392.02 91.68,-123.69 164.42,-275.22 206.89,-442.9 48.15,-190.08 56.48,-391.72 41.49,-585.59 -20.02,-258.9 -81.59,-495.93 -147.1,-675.37 -28.1,-76.97 -55.6,-140.86 -80.06,-197.74 -117.1,-272.14 -186.24,-432.89 180.32,-822.9 111.51,-118.62 255.44,-210.2 424.94,-318.02 182.06,-115.8 399.05,-253.84 566.82,-414.15 107.51,-102.73 195.58,-221.41 247.59,-349.23 70.66,-173.63 103.6,-375.46 82.68,-603.36 -24.48,-266.73 -124.5,-553.03 -286.07,-818.83 -155.46,-255.76 -367.21,-490.95 -622.89,-670.17 -250.31,-175.46 -543.55,-297.77 -865.78,-376.36 -351.11,-85.64 -737.64,-118.87 -1141.23,-112.12 -407.29,6.8 -829.66,54.22 -1248.33,156.83 -372.57,91.31 -744.14,226.88 -1101.87,417.19 -377.26,200.7 -731.45,457.49 -989.12,714.96z"/>
   </g>
   <g>
    <path class="fil4" d="M7704.58 7914.76c469.76,63.39 1129.05,769.41 1539.16,1540.32 410.13,770.92 571.07,1606.75 584.05,2382.85 12.98,776.11 -122,1492.52 -493.19,2022.04 -371.18,529.53 -978.57,872.15 -1515.88,921.47 -537.3,49.32 -1004.52,-194.66 -1339.36,-545.09 -334.84,-350.42 -537.32,-807.26 -709.92,-969.5 -172.6,-162.22 -315.33,-29.83 -642.38,89.58 -327.06,119.4 -838.44,225.81 -1325.15,102.51 -486.69,-123.29 -948.73,-476.31 -1213.48,-899.41 -264.77,-423.09 -332.27,-916.27 -260.87,-1366.63 71.39,-450.35 281.67,-857.85 660.72,-1040.65 379.05,-182.78 926.85,-140.86 1569.36,-293.8 642.5,-152.94 1379.66,-500.77 1888.34,-964.3 508.69,-463.53 788.87,-1042.79 1258.6,-979.39z"/>
    <path id="1" class="fil1" d="M7704.58 7914.76c469.76,63.39 1129.05,769.41 1539.16,1540.32 410.13,770.92 571.07,1606.75 584.05,2382.85 12.98,776.11 -122,1492.52 -493.19,2022.04 -371.18,529.53 -978.57,872.15 -1515.88,921.47 -537.3,49.32 -1004.52,-194.66 -1339.36,-545.09 -334.84,-350.42 -537.32,-807.26 -709.92,-969.5 -172.6,-162.22 -315.33,-29.83 -642.38,89.58 -327.06,119.4 -838.44,225.81 -1325.15,102.51 -486.69,-123.29 -948.73,-476.31 -1213.48,-899.41 -264.77,-423.09 -332.27,-916.27 -260.87,-1366.63 71.39,-450.35 281.67,-857.85 660.72,-1040.65 379.05,-182.78 926.85,-140.86 1569.36,-293.8 642.5,-152.94 1379.66,-500.77 1888.34,-964.3 508.69,-463.53 788.87,-1042.79 1258.6,-979.39zm607.63 711.28c-263.7,-263.9 -531.49,-443.42 -753.61,-473.39 -280.28,-37.83 -474.3,182.5 -708.75,448.77 -135.93,154.38 -282.14,320.42 -458.77,481.37 -265.08,241.55 -581.57,451.1 -912.3,619.98 -347.92,177.67 -713.94,312.4 -1052.21,392.91 -280.8,66.84 -540.16,96.67 -776.07,123.79 -306.97,35.29 -573.52,65.95 -775.48,163.33 -119.14,57.46 -196.07,121.61 -238.02,187.68 -65.51,103.19 -112.59,259.87 -141.97,445.23 -34.8,219.5 -33.95,452.4 10.29,684.15 41.87,219.34 121.79,434.53 246.04,633.08 132.19,211.26 314.38,404.96 524.45,560.66 205.19,152.08 437.07,267.8 675,328.07 208.45,52.8 422.96,62.45 625.64,46.78 257.72,-19.93 494.16,-81.4 673.39,-146.83 72.48,-26.47 137.12,-54.28 194.66,-79.03 212.19,-91.3 337.53,-145.22 483.96,-7.59 80.05,75.24 162.01,204.07 258.53,355.81 122.34,192.32 268.17,421.55 452.42,614.38 174.72,182.86 385.7,336.34 623.75,433.22 212.14,86.33 445.53,127.8 693.44,105.04 264.48,-24.27 544.48,-121.09 800.8,-276.9 214.03,-130.1 399.28,-290.79 524.55,-469.5 116.88,-166.73 204.94,-389.11 268.96,-651.56 82.11,-336.7 113.9,-711.85 107.3,-1106.6 -6.78,-405.76 -54.07,-826.8 -156.44,-1244.48 -91.87,-374.82 -229.1,-750.24 -422.5,-1113.77 -210.47,-395.64 -486.02,-773.34 -767.06,-1054.6z"/>
   </g>
  </g>
 </g>
</svg>
